<svg id="svg" xmlns="http://www.w3.org/2000/svg" xmlns:xlink="http://www.w3.org/1999/xlink" width="400" height="300" viewBox="0, 0, 400,300"><g id="svgg"><path id="path0" d="M200.062 70.486 C 199.324 70.783,199.174 72.588,197.799 97.563 C 196.257 125.578,196.206 126.296,195.747 126.411 C 195.580 126.453,194.152 126.734,192.575 127.036 C 184.153 128.649,176.740 132.702,169.982 139.388 L 166.626 142.708 147.701 142.731 C 126.017 142.757,124.396 142.824,123.672 143.717 C 122.868 144.710,122.972 147.380,123.850 148.258 C 124.639 149.047,124.331 148.979,136.328 151.043 C 156.540 154.520,158.936 154.943,159.052 155.059 C 159.119 155.126,158.584 156.974,157.864 159.166 C 156.697 162.720,155.664 167.167,155.033 171.354 C 154.834 172.676,154.768 172.782,154.167 172.723 C 153.809 172.688,140.039 171.082,123.568 169.154 C 46.559 160.142,54.424 160.895,52.303 162.324 C 49.799 164.012,49.261 168.979,51.338 171.233 C 52.528 172.523,52.819 172.636,60.677 174.842 C 63.470 175.626,75.540 179.042,87.500 182.433 C 99.460 185.824,110.182 188.857,111.328 189.173 L 113.411 189.748 113.550 192.205 C 113.701 194.894,113.767 194.745,111.947 195.833 C 106.387 199.157,106.884 208.040,112.806 211.203 C 122.918 216.604,131.512 201.639,121.781 195.573 L 120.319 194.661 120.316 193.294 C 120.314 192.542,120.423 191.927,120.559 191.927 C 120.895 191.927,152.378 200.768,158.638 202.621 L 160.375 203.135 161.475 205.148 C 176.572 232.789,209.696 237.999,230.911 216.069 C 234.393 212.470,236.493 209.526,239.306 204.297 C 239.769 203.438,240.225 202.652,240.321 202.552 C 240.417 202.451,246.179 200.787,253.125 198.853 C 260.072 196.919,269.955 194.160,275.089 192.721 C 280.222 191.282,284.470 190.104,284.529 190.104 C 284.587 190.104,284.635 190.720,284.635 191.472 C 284.635 192.828,284.625 192.845,283.459 193.464 C 277.024 196.877,277.859 207.029,284.788 209.621 C 295.159 213.502,302.074 198.911,292.518 193.311 L 291.387 192.647 291.462 190.433 L 291.536 188.218 294.141 187.445 C 297.302 186.507,308.281 183.434,328.906 177.714 C 348.258 172.347,347.366 172.639,348.649 171.247 C 351.050 168.643,350.084 163.468,346.897 161.851 C 345.390 161.087,346.046 161.030,316.667 164.467 C 304.926 165.841,254.889 171.691,249.681 172.300 C 245.351 172.805,245.424 172.828,245.198 170.919 C 244.799 167.551,243.662 162.682,242.420 159.026 C 241.697 156.900,241.168 155.099,241.244 155.023 C 241.448 154.820,253.858 152.618,268.750 150.144 C 275.766 148.978,275.446 149.057,276.194 148.309 C 277.318 147.185,276.920 143.701,275.596 143.071 C 275.340 142.949,265.770 142.810,254.329 142.763 L 233.528 142.677 230.783 139.812 C 224.856 133.627,217.489 129.300,209.609 127.376 L 206.809 126.693 206.657 124.870 C 206.573 123.867,206.038 111.797,205.469 98.047 C 204.414 72.592,204.322 71.414,203.320 70.713 C 202.777 70.333,200.786 70.194,200.062 70.486 M168.318 164.881 C 175.443 168.269,176.932 168.853,180.078 169.493 C 184.189 170.330,192.245 171.353,194.727 171.354 L 195.313 171.354 195.313 179.036 L 195.313 186.719 190.169 186.703 C 179.927 186.672,176.493 186.394,173.828 185.383 C 165.769 182.324,160.156 174.011,160.156 165.134 C 160.156 161.190,160.530 161.179,168.318 164.881 M238.200 162.656 C 240.485 164.941,237.115 175.531,232.589 180.287 C 227.678 185.449,224.936 186.336,213.064 186.599 L 204.427 186.791 204.427 179.106 L 204.427 171.421 206.836 171.240 C 216.747 170.494,221.750 169.287,228.516 166.009 C 238.161 161.336,237.209 161.665,238.200 162.656 M289.089 197.432 C 293.685 198.971,292.117 205.986,287.375 205.096 C 282.952 204.267,283.412 197.528,287.917 197.159 C 288.075 197.146,288.602 197.269,289.089 197.432 M118.660 199.386 C 122.215 201.072,121.380 206.334,117.499 206.707 C 113.068 207.133,111.418 201.095,115.482 199.325 C 116.560 198.855,117.584 198.875,118.660 199.386 " stroke="none" fill="#040404" fill-rule="evenodd"></path><path id="path1" d="M0.000 150.000 L 0.000 300.000 200.000 300.000 L 400.000 300.000 400.000 150.000 L 400.000 0.000 200.000 0.000 L 0.000 0.000 0.000 150.000 M202.965 70.301 C 204.385 70.841,204.465 71.354,204.982 83.330 C 205.245 89.419,205.756 101.198,206.118 109.505 C 206.480 117.813,206.774 125.031,206.773 125.547 L 206.771 126.484 209.570 127.206 C 218.190 129.428,225.688 133.931,231.622 140.450 L 233.670 142.699 254.590 142.769 L 275.509 142.839 276.206 143.536 C 277.317 144.646,277.282 147.402,276.145 148.420 C 275.227 149.242,276.268 149.026,259.635 151.832 C 248.927 153.638,241.329 154.969,241.219 155.059 C 241.187 155.085,241.576 156.213,242.083 157.566 C 243.289 160.784,244.640 166.081,245.165 169.646 C 245.396 171.213,245.618 172.528,245.658 172.568 C 245.698 172.608,247.658 172.410,250.014 172.129 C 252.369 171.847,262.793 170.624,273.177 169.410 C 283.561 168.195,300.553 166.207,310.938 164.990 C 347.713 160.682,345.548 160.846,347.694 162.208 C 349.284 163.216,349.789 164.365,349.935 167.310 C 350.164 171.894,349.963 172.012,334.896 176.182 C 322.032 179.742,303.596 184.891,296.388 186.938 C 291.298 188.383,291.416 188.295,291.410 190.682 L 291.406 192.432 292.773 193.307 C 300.682 198.369,297.450 210.232,288.151 210.275 C 278.993 210.318,275.372 198.599,283.006 193.620 C 284.602 192.579,285.274 191.050,284.378 190.497 C 284.237 190.409,277.821 192.098,270.121 194.250 C 262.420 196.401,252.604 199.142,248.307 200.340 L 240.495 202.519 239.487 204.319 C 231.526 218.544,220.844 226.745,206.901 229.334 C 189.436 232.578,169.467 221.837,161.070 204.682 L 160.367 203.245 145.874 199.134 C 118.650 191.414,120.726 191.959,120.522 192.478 C 120.126 193.484,120.588 194.704,121.578 195.264 C 130.825 200.495,124.756 215.106,114.591 212.087 C 106.629 209.723,105.493 198.375,112.881 195.009 C 113.518 194.719,113.542 194.624,113.542 192.328 L 113.542 189.948 97.331 185.349 C 88.415 182.819,76.081 179.329,69.922 177.594 C 54.991 173.386,52.956 172.776,52.197 172.279 C 48.200 169.660,49.699 162.174,54.397 161.292 C 55.616 161.064,59.123 161.456,125.762 169.277 C 141.578 171.133,154.573 172.598,154.639 172.531 C 154.706 172.464,154.972 171.029,155.231 169.343 C 155.801 165.618,156.931 161.171,158.186 157.707 C 158.700 156.289,159.090 155.109,159.053 155.085 C 159.015 155.061,151.916 153.836,143.276 152.363 C 123.865 149.052,124.606 149.204,123.753 148.351 C 122.948 147.545,122.765 145.141,123.416 143.921 C 124.050 142.735,124.485 142.711,146.102 142.710 L 166.554 142.708 169.279 139.944 C 176.992 132.124,183.989 128.406,194.792 126.389 L 195.964 126.171 196.150 123.697 C 196.253 122.337,196.869 111.439,197.519 99.479 C 198.759 76.675,199.075 71.758,199.345 71.062 C 199.686 70.184,201.599 69.782,202.965 70.301 M160.698 162.867 C 160.069 163.538,160.068 163.542,160.360 166.515 C 161.238 175.478,166.359 182.472,174.165 185.367 L 176.693 186.305 185.938 186.317 L 195.182 186.328 195.252 179.198 C 195.331 171.036,195.414 171.354,193.207 171.354 C 191.132 171.354,184.142 170.437,180.339 169.665 C 176.702 168.927,175.754 168.562,168.389 165.064 C 162.026 162.043,161.587 161.918,160.698 162.867 M231.250 164.845 C 228.314 166.270,225.076 167.788,224.055 168.218 C 221.092 169.465,211.619 171.168,206.250 171.418 L 204.818 171.484 204.749 178.971 L 204.680 186.458 211.780 186.456 C 215.685 186.455,219.833 186.345,220.999 186.211 C 230.616 185.105,238.520 175.582,238.538 165.079 C 238.544 161.469,238.225 161.459,231.250 164.845 M286.261 197.915 C 283.834 199.395,283.705 202.967,286.027 204.402 C 287.694 205.432,290.212 204.916,291.249 203.333 C 293.352 200.119,289.503 195.938,286.261 197.915 M114.974 199.721 C 112.792 201.201,112.747 204.674,114.893 205.983 C 117.517 207.582,120.833 205.825,120.833 202.835 C 120.833 200.096,117.238 198.185,114.974 199.721 " stroke="none" fill="#fbfbfb" fill-rule="evenodd"></path><path id="path2" d="M204.748 79.948 C 204.748 80.449,204.802 80.654,204.867 80.404 C 204.933 80.153,204.933 79.743,204.867 79.492 C 204.802 79.242,204.748 79.447,204.748 79.948 M205.008 86.198 C 205.008 86.699,205.062 86.904,205.127 86.654 C 205.193 86.403,205.193 85.993,205.127 85.742 C 205.062 85.492,205.008 85.697,205.008 86.198 M205.269 92.188 C 205.269 92.689,205.322 92.894,205.388 92.643 C 205.453 92.393,205.453 91.982,205.388 91.732 C 205.322 91.481,205.269 91.686,205.269 92.188 M205.790 104.427 C 205.790 104.928,205.843 105.133,205.909 104.883 C 205.974 104.632,205.974 104.222,205.909 103.971 C 205.843 103.721,205.790 103.926,205.790 104.427 M206.050 110.417 C 206.050 110.918,206.104 111.123,206.169 110.872 C 206.235 110.622,206.235 110.212,206.169 109.961 C 206.104 109.710,206.050 109.915,206.050 110.417 M206.310 116.667 C 206.310 117.168,206.364 117.373,206.430 117.122 C 206.495 116.872,206.495 116.462,206.430 116.211 C 206.364 115.960,206.310 116.165,206.310 116.667 M206.571 122.396 C 206.571 122.897,206.624 123.102,206.690 122.852 C 206.755 122.601,206.755 122.191,206.690 121.940 C 206.624 121.689,206.571 121.895,206.571 122.396 M122.982 145.964 C 122.985 146.536,123.039 146.740,123.101 146.416 C 123.163 146.092,123.161 145.624,123.096 145.375 C 123.030 145.126,122.979 145.391,122.982 145.964 M276.889 146.224 C 276.891 146.797,276.945 147.001,277.007 146.677 C 277.069 146.353,277.067 145.884,277.002 145.635 C 276.937 145.386,276.886 145.651,276.889 146.224 M238.613 164.844 C 238.613 165.488,238.663 165.752,238.725 165.430 C 238.788 165.107,238.788 164.580,238.725 164.258 C 238.663 163.936,238.613 164.199,238.613 164.844 M116.732 206.690 C 116.982 206.755,117.393 206.755,117.643 206.690 C 117.894 206.624,117.689 206.571,117.188 206.571 C 116.686 206.571,116.481 206.624,116.732 206.690 " stroke="none" fill="#9e9e9e" fill-rule="evenodd"></path><path id="path3" d="M204.748 82.031 C 204.748 82.533,204.802 82.738,204.867 82.487 C 204.933 82.236,204.933 81.826,204.867 81.576 C 204.802 81.325,204.748 81.530,204.748 82.031 M205.529 100.260 C 205.529 100.762,205.583 100.967,205.648 100.716 C 205.714 100.465,205.714 100.055,205.648 99.805 C 205.583 99.554,205.529 99.759,205.529 100.260 M206.050 112.500 C 206.050 113.001,206.104 113.206,206.169 112.956 C 206.235 112.705,206.235 112.295,206.169 112.044 C 206.104 111.794,206.050 111.999,206.050 112.500 M229.818 138.802 C 230.523 139.518,231.159 140.104,231.230 140.104 C 231.302 140.104,230.784 139.518,230.078 138.802 C 229.373 138.086,228.737 137.500,228.665 137.500 C 228.594 137.500,229.112 138.086,229.818 138.802 M126.888 142.888 C 127.139 142.953,127.549 142.953,127.799 142.888 C 128.050 142.822,127.845 142.769,127.344 142.769 C 126.842 142.769,126.637 142.822,126.888 142.888 M272.982 142.888 C 273.232 142.953,273.643 142.953,273.893 142.888 C 274.144 142.822,273.939 142.769,273.438 142.769 C 272.936 142.769,272.731 142.822,272.982 142.888 M186.133 186.653 C 187.601 186.699,190.003 186.699,191.471 186.653 C 192.939 186.606,191.738 186.568,188.802 186.568 C 185.866 186.568,184.665 186.606,186.133 186.653 M209.710 186.651 C 210.539 186.703,211.828 186.702,212.575 186.650 C 213.321 186.598,212.643 186.555,211.068 186.556 C 209.492 186.556,208.881 186.599,209.710 186.651 M107.878 203.516 C 107.881 204.089,107.934 204.292,107.997 203.968 C 108.059 203.644,108.057 203.176,107.991 202.927 C 107.926 202.678,107.875 202.943,107.878 203.516 M126.102 203.385 C 126.102 203.887,126.156 204.092,126.221 203.841 C 126.287 203.590,126.287 203.180,126.221 202.930 C 126.156 202.679,126.102 202.884,126.102 203.385 M116.605 212.424 C 116.929 212.486,117.397 212.484,117.646 212.419 C 117.895 212.353,117.630 212.302,117.057 212.305 C 116.484 212.308,116.281 212.361,116.605 212.424 M199.419 229.876 C 199.887 229.934,200.590 229.933,200.981 229.874 C 201.373 229.814,200.990 229.767,200.130 229.768 C 199.271 229.770,198.951 229.818,199.419 229.876 " stroke="none" fill="#747474" fill-rule="evenodd"></path><path id="path4" d="M204.542 179.036 C 204.542 183.190,204.578 184.853,204.622 182.731 C 204.666 180.610,204.666 177.212,204.622 175.179 C 204.578 173.147,204.542 174.883,204.542 179.036 M206.315 186.645 C 206.709 186.705,207.354 186.705,207.747 186.645 C 208.141 186.585,207.819 186.536,207.031 186.536 C 206.243 186.536,205.921 186.585,206.315 186.645 " stroke="none" fill="#7c7c7c" fill-rule="evenodd"></path></g></svg>