<?xml version="1.0" encoding="iso-8859-1"?>
<!-- Generator: Adobe Illustrator 19.0.0, SVG Export Plug-In . SVG Version: 6.00 Build 0)  -->
<svg version="1.1" id="Layer_1" xmlns="http://www.w3.org/2000/svg" xmlns:xlink="http://www.w3.org/1999/xlink" x="0px" y="0px"
	 viewBox="0 0 512 512" style="enable-background:new 0 0 512 512;" xml:space="preserve">
<g>
	<path style="fill:#2D527C;" d="M393.537,198.521h-62.341c-7.504,0-13.59-6.084-13.59-13.59c0-7.506,6.086-13.59,13.59-13.59h62.341
		c7.504,0,13.59,6.084,13.59,13.59C407.127,192.437,401.043,198.521,393.537,198.521z"/>
	<path style="fill:#2D527C;" d="M181.708,198.521h-63.246c-7.506,0-13.59-6.084-13.59-13.59c0-7.506,6.084-13.59,13.59-13.59h63.246
		c7.506,0,13.59,6.084,13.59,13.59C195.298,192.437,189.213,198.521,181.708,198.521z"/>
</g>
<path style="fill:#CEE8FA;" d="M93.657,353.667c15.011,0,27.18-12.168,27.18-27.18h-54.36
	C66.477,341.499,78.645,353.667,93.657,353.667z"/>
<g>
	<path style="fill:#2D527C;" d="M93.657,367.259c-22.481,0-40.77-18.289-40.77-40.77c0-7.506,6.084-13.59,13.59-13.59h54.36
		c7.506,0,13.59,6.084,13.59,13.59C134.427,348.969,116.137,367.259,93.657,367.259z"/>
	<path style="fill:#2D527C;" d="M157.672,340.079H48.418C21.72,340.079,0,318.358,0,291.66s21.72-48.418,48.418-48.418h98.862
		c7.506,0,13.59,6.084,13.59,13.59s-6.084,13.59-13.59,13.59H48.418c-11.71,0-21.238,9.528-21.238,21.238
		c0,11.71,9.528,21.238,21.238,21.238h109.254c7.506,0,13.59,6.084,13.59,13.59C171.262,333.994,165.178,340.079,157.672,340.079z"
		/>
</g>
<path style="fill:#CEE8FA;" d="M418.343,353.667c-15.011,0-27.18-12.168-27.18-27.18h54.36
	C445.523,341.499,433.355,353.667,418.343,353.667z"/>
<g>
	<path style="fill:#2D527C;" d="M418.343,367.259c-22.481,0-40.77-18.289-40.77-40.77c0-7.506,6.086-13.59,13.59-13.59h54.36
		c7.504,0,13.59,6.084,13.59,13.59C459.113,348.969,440.824,367.259,418.343,367.259z"/>
	<path style="fill:#2D527C;" d="M463.582,340.079H354.326c-7.504,0-13.59-6.084-13.59-13.59c0-7.506,6.086-13.59,13.59-13.59
		h109.255c11.711,0,21.238-9.528,21.238-21.238c0-11.711-9.528-21.238-21.238-21.238h-49.258c-7.504,0-13.59-6.084-13.59-13.59
		s6.086-13.59,13.59-13.59h49.258c26.699,0,48.418,21.719,48.418,48.418S490.28,340.079,463.582,340.079z"/>
	<path style="fill:#2D527C;" d="M256,424.752c-25.541,0-56.396-16.898-80.521-44.098c-26.657-30.054-41.337-67.145-41.337-104.442
		c0-38.023,13.484-72.859,37.968-98.093c22.728-23.422,53.304-36.856,83.89-36.856s61.162,13.434,83.89,36.856
		c24.485,25.233,37.968,60.069,37.968,98.093c0,18.458-3.705,37.073-11.011,55.333c-2.787,6.968-10.693,10.357-17.666,7.57
		c-6.968-2.789-10.357-10.698-7.568-17.667c6.015-15.035,9.065-30.254,9.065-45.237c0-66.565-49.144-107.769-94.677-107.769
		c-45.532,0-94.677,41.202-94.677,107.769c0,65.82,58.154,121.36,94.677,121.36c16.801,0,39.495-12.696,57.813-32.344
		c5.121-5.49,13.718-5.791,19.208-0.673c5.489,5.118,5.791,13.718,0.673,19.207C309.765,409.428,280.719,424.752,256,424.752z"/>
</g>
<path style="fill:#CEE8FA;" d="M315.557,289.575c0.745-4.475,1.144-8.946,1.144-13.363c0-47.935-27.407-73.794-60.702-73.794
	s-60.702,25.859-60.702,73.794c0,4.418,0.401,8.889,1.144,13.363L315.557,289.575L315.557,289.575z"/>
<path style="fill:#2D527C;" d="M315.557,303.167H196.442c-6.646,0-12.317-4.807-13.407-11.361
	c-0.881-5.304-1.329-10.55-1.329-15.592c0-26.047,7.356-48.133,21.274-63.873c13.404-15.161,32.233-23.509,53.017-23.509
	c20.785,0,39.615,8.35,53.019,23.509c13.917,15.741,21.274,37.828,21.274,63.874c0,5.045-0.447,10.292-1.33,15.595
	C327.872,298.361,322.202,303.167,315.557,303.167z M208.888,275.987h94.225c-0.077-36.443-18.552-59.977-47.112-59.977
	C227.439,216.009,208.965,239.544,208.888,275.987z"/>
<path style="fill:#CEE8FA;" d="M256,154.854c13.258,0,26.613,2.896,39.199,8.388l-18.832-62.404h-40.733l-18.832,62.404
	C229.387,157.75,242.742,154.854,256,154.854z"/>
<path style="fill:#2D527C;" d="M216.804,176.832c-3.267,0-6.492-1.177-9.028-3.429c-3.96-3.517-5.516-9.016-3.986-14.087
	l18.832-62.404c1.731-5.738,7.018-9.664,13.011-9.664h40.733c5.993,0,11.28,3.926,13.01,9.664l18.576,61.552
	c0.557,1.487,0.863,3.097,0.863,4.778c0,7.476-6.037,13.542-13.504,13.59c-1.859-0.003-3.764-0.356-5.549-1.135
	c-22.055-9.626-45.468-9.626-67.526,0C220.489,176.461,218.64,176.832,216.804,176.832z M245.727,114.428l-8.602,28.506
	c12.5-2.222,25.25-2.223,37.75,0l-8.602-28.506H245.727z"/>
<g>
</g>
<g>
</g>
<g>
</g>
<g>
</g>
<g>
</g>
<g>
</g>
<g>
</g>
<g>
</g>
<g>
</g>
<g>
</g>
<g>
</g>
<g>
</g>
<g>
</g>
<g>
</g>
<g>
</g>
</svg>
