<?xml version="1.0" encoding="iso-8859-1"?>
<!-- Generator: Adobe Illustrator 19.0.0, SVG Export Plug-In . SVG Version: 6.00 Build 0)  -->
<svg version="1.1" id="Layer_1" xmlns="http://www.w3.org/2000/svg" xmlns:xlink="http://www.w3.org/1999/xlink" x="0px" y="0px"
	 viewBox="0 0 512 512" style="enable-background:new 0 0 512 512;" xml:space="preserve">
<g>
	<path style="fill:#DBDDDD;" d="M471.659,79.676c0,7.258-5.883,13.142-13.142,13.142h-57.103c-7.258,0-13.142-5.884-13.142-13.142
		V13.142C388.271,5.883,394.156,0,401.414,0h57.103c7.259,0,13.142,5.883,13.142,13.142L471.659,79.676L471.659,79.676z"/>
	<path style="fill:#DBDDDD;" d="M246.273,512c-77.32,0-140.223-62.904-140.223-140.223s62.904-140.223,140.223-140.223
		s140.223,62.903,140.223,140.223S323.592,512,246.273,512z M246.273,247.981c-68.261,0-123.796,55.535-123.796,123.796
		s55.535,123.796,123.796,123.796c68.26,0,123.796-55.535,123.796-123.796S314.532,247.981,246.273,247.981z"/>
	<path style="fill:#DBDDDD;" d="M248.294,512C143.591,512,58.41,426.819,58.41,322.115V209.599c0-4.537,3.677-8.214,8.214-8.214
		c4.537,0,8.214,3.677,8.214,8.214v112.516c0,95.644,77.812,173.457,173.457,173.457s173.457-77.813,173.457-173.457V155.57
		c0-4.537,3.677-8.214,8.214-8.214c4.537,0,8.214,3.677,8.214,8.214v166.545C438.179,426.819,352.997,512,248.294,512z"/>
</g>
<g>
	<path style="fill:#EDF4F4;" d="M414.621,39.298c-4.537,0-8.214-3.677-8.214-8.214v-7.119c0-4.537,3.677-8.214,8.214-8.214
		c4.537,0,8.214,3.677,8.214,8.214v7.119C422.835,35.62,419.159,39.298,414.621,39.298z"/>
	<path style="fill:#EDF4F4;" d="M446.382,39.298c-4.537,0-8.214-3.677-8.214-8.214v-7.119c0-4.537,3.677-8.214,8.214-8.214
		c4.537,0,8.214,3.677,8.214,8.214v7.119C454.596,35.62,450.919,39.298,446.382,39.298z"/>
</g>
<path style="fill:#DBDDDD;" d="M90.091,178.386c0,7.258-5.884,13.142-13.142,13.142H56.3c-7.259,0-13.142-5.884-13.142-13.142
	v-28.475c0-7.258,5.883-13.142,13.142-13.142h20.65c7.258,0,13.142,5.884,13.142,13.142v28.475H90.091z"/>
<g>
	<path style="opacity:0.15;fill:#231F20;enable-background:new    ;" d="M405.977,79.676V13.142C405.977,5.883,411.86,0,419.119,0
		h-17.706c-7.258,0-13.142,5.883-13.142,13.142v66.534c0,7.258,5.884,13.142,13.142,13.142h17.706
		C411.86,92.818,405.977,86.934,405.977,79.676z"/>
	<path style="opacity:0.15;fill:#231F20;enable-background:new    ;" d="M60.864,178.386v-28.475
		c0-7.258,5.884-13.142,13.142-13.142H56.3c-7.259,0-13.142,5.884-13.142,13.142v28.475c0,7.258,5.883,13.142,13.142,13.142h17.706
		C66.748,191.529,60.864,185.644,60.864,178.386z"/>
</g>
<path style="fill:#53CAF9;" d="M88.053,168.712h-5.336H45.196c-7.259,0-13.142,5.883-13.142,13.142v37.013
	c0,2.206,1.786,3.993,3.993,3.993h61.156c2.206,0,3.993-1.788,3.993-3.993v-37.013C101.195,174.596,95.311,168.712,88.053,168.712z"
	/>
<path style="fill:#688787;" d="M449.69,124.176c0-7.259-5.883-13.142-13.142-13.142h-13.165c-7.258,0-13.142,5.883-13.142,13.142
	v18.252c0,7.259,5.884,13.142,13.142,13.142h13.165c7.259,0,13.142-5.883,13.142-13.142V124.176z"/>
<path style="opacity:0.15;fill:#231F20;enable-background:new    ;" d="M427.88,142.428v-18.252c0-6.496,4.715-11.875,10.905-12.937
	c-0.727-0.125-1.472-0.205-2.236-0.205h-13.165c-7.258,0-13.142,5.883-13.142,13.142v18.252c0,7.259,5.884,13.142,13.142,13.142
	h13.165c0.764,0,1.509-0.079,2.236-0.204C432.595,154.303,427.88,148.924,427.88,142.428z"/>
<path style="fill:#53CAF9;" d="M466.804,53.676h-2.748h-10.825h-60.104c-7.259,0-13.142,5.884-13.142,13.142v52.001
	c0,7.258,5.883,13.142,13.142,13.142h73.677c7.258,0,13.142-5.884,13.142-13.142V106.1V80.367V66.818
	C479.946,59.561,474.062,53.676,466.804,53.676z"/>
<g>
	<path style="opacity:0.15;fill:#231F20;enable-background:new    ;" d="M49.577,218.868v-37.013
		c0-7.259,5.883-13.142,13.142-13.142H45.196c-7.259,0-13.142,5.883-13.142,13.142v37.013c0,2.206,1.786,3.993,3.993,3.993H53.57
		C51.363,222.861,49.577,221.072,49.577,218.868z"/>
	<path style="opacity:0.15;fill:#231F20;enable-background:new    ;" d="M397.508,118.818V66.818
		c0-7.258,5.883-13.142,13.142-13.142h-17.523c-7.259,0-13.142,5.884-13.142,13.142v52.001c0,7.258,5.883,13.142,13.142,13.142
		h17.523C403.392,131.96,397.508,126.076,397.508,118.818z"/>
</g>
<g>
</g>
<g>
</g>
<g>
</g>
<g>
</g>
<g>
</g>
<g>
</g>
<g>
</g>
<g>
</g>
<g>
</g>
<g>
</g>
<g>
</g>
<g>
</g>
<g>
</g>
<g>
</g>
<g>
</g>
</svg>
